# xmcd
#
# Track frame offsets:
# 150
# 19429
# 24203
# 58194
# 83913
# 115190
# 139695
# 165458
# 188228
# 217699
# 247782
# 269754
#
# Disc length: 4360 seconds
#
#
# Revision: 0
# Processed by: cddbd v1.5.2PL0 Copyright (c) Steve Scherf et al.
# Submitted via: FreeRIP 2.945 
#
DISCID=9d11060c
DTITLE=Ablaye Cissoko - Diam (La paix)
DYEAR=1900
DGENRE=Blues
TTITLE0=Bara
TTITLE1=Appel a la priere
TTITLE2=Kimintang
TTITLE3=Rose
TTITLE4=Douna (le monde)
TTITLE5=Ba (Ocean)
TTITLE6=Miro (la pensee)
TTITLE7=Tilo (Lumiere)
TTITLE8=Kaira (la paix)
TTITLE9=Kano (l'amour)
TTITLE10=Tero (l'ami)
TTITLE11=Touba (Ville sainte du Senegal)
EXTD=
EXTT0=
EXTT1=
EXTT2=
EXTT3=
EXTT4=
EXTT5=
EXTT6=
EXTT7=
EXTT8=
EXTT9=
EXTT10=
EXTT11=
PLAYORDER=
